<?xml version="1.0" encoding="UTF-8"?>
<svg width="167px" height="241px" viewBox="0 0 167 241" version="1.1" xmlns="http://www.w3.org/2000/svg" xmlns:xlink="http://www.w3.org/1999/xlink">
    <title>Group 8</title>
    <defs>
        <polygon id="path-1" points="0 0 98.2224144 0 98.2224144 101.648928 0 101.648928"></polygon>
    </defs>
    <g id="Page-1" stroke="none" stroke-width="1" fill="none" fill-rule="evenodd">
        <g id="Group-8" transform="translate(-0.000000, 0.000000)">
            <g id="Group-3">
                <mask id="mask-2" fill="white">
                    <use xlink:href="#path-1"></use>
                </mask>
                <g id="Clip-2"></g>
                <path d="M97.4900828,45.9838 C94.7900828,31.6838 85.9900828,19.3838 74.1890828,12.2838 C65.2900828,2.8838 52.5900828,-2.4162 40.3890828,1.0838 C39.0900828,0.9838 37.6890828,1.0838 36.0900828,1.6838 C9.99008281,10.8838 -3.00991719,40.0838 0.590082807,66.1838 C4.49008281,94.5838 33.8890828,104.8838 58.7900828,100.7838 C83.6890828,96.5838 102.189083,70.7838 97.4900828,45.9838" id="Fill-1" fill="#0A694E" mask="url(#mask-2)"></path>
            </g>
            <path d="M166.189283,113.184 C164.589283,89.184 139.889283,73.584 117.290283,75.684 C116.889283,75.684 116.589283,75.784 116.189283,75.784 C114.290283,74.784 111.889283,74.484 109.089283,75.284 C90.5892828,81.084 78.6892828,96.084 83.8892828,115.784 C88.7902828,134.184 107.689283,146.084 125.490283,148.584 C148.389283,151.884 167.790283,137.084 166.189283,113.184" id="Fill-4" fill="#009444"></path>
            <path d="M113.789883,120.0839 C108.188883,121.4839 102.589883,124.6839 97.0898828,126.7839 C90.8898828,129.1839 84.9898828,132.1839 79.5898828,136.1839 C78.8898828,136.6839 78.2898828,137.2839 77.6888828,137.7839 C77.7898828,137.2839 77.7898828,136.8839 77.8898828,136.3839 C79.1888828,124.1839 75.1888828,110.9839 71.9898828,99.3839 C69.3898828,90.0839 65.2898828,78.7839 58.5898828,71.6839 C58.3898828,71.4839 57.9898828,71.6839 58.0898828,71.9839 C66.9898828,94.5839 71.1888828,123.3839 66.4898828,147.3839 C60.9898828,175.6839 55.0898828,204.7839 58.0898828,233.6839 C58.9898828,242.8839 73.6888828,242.8839 72.5898828,233.6839 C70.5898828,217.1839 70.6888828,199.9839 70.9898828,183.2839 C71.1888828,173.4839 73.1888828,163.8839 74.9898828,154.2839 C75.3898828,153.4839 75.7898828,152.6839 76.2898828,151.8839 C79.6888828,146.3839 85.3898828,142.5839 90.9898828,139.5839 C99.0898828,135.1839 111.589883,131.6839 116.289883,123.2839 C117.188883,121.6839 115.688883,119.6839 113.789883,120.0839" id="Fill-6" fill="#80533B"></path>
        </g>
    </g>
</svg>