<?xml version="1.0" encoding="UTF-8"?>
<svg width="134px" height="234px" viewBox="0 0 134 234" version="1.1" xmlns="http://www.w3.org/2000/svg" xmlns:xlink="http://www.w3.org/1999/xlink">
    <title>Group 10</title>
    <defs>
        <polygon id="path-1" points="1.77635684e-15 1.42108547e-14 133.577632 1.42108547e-14 133.577632 70.8204745 1.77635684e-15 70.8204745"></polygon>
    </defs>
    <g id="Page-1" stroke="none" stroke-width="1" fill="none" fill-rule="evenodd">
        <g id="Group-10" transform="translate(0.000000, -0.000000)">
            <path d="M120.291232,31.4673411 C120.092232,19.1663411 107.892232,10.5673411 98.1912315,5.76734107 C85.6912315,-0.432658934 73.7912315,-1.23265893 60.2912315,1.46734107 C57.9912315,1.86634107 55.7912315,2.56734107 53.5922315,3.46734107 C40.0922315,3.96734107 25.8922315,9.16634107 23.8922315,23.4673411 C21.1912315,31.8663411 23.0922315,42.0673411 29.0922315,48.3663411 C43.8922315,63.7673411 78.1912315,68.2673411 97.6912315,57.7673411 C99.3922315,57.2673411 101.092232,56.6663411 102.691232,55.8663411 C112.791232,52.2673411 120.392232,44.9673411 120.291232,31.4673411" id="Fill-1" fill="#2CA86A"></path>
            <g id="Group-5" transform="translate(0.000000, 124.052569)">
                <mask id="mask-2" fill="white">
                    <use xlink:href="#path-1"></use>
                </mask>
                <g id="Clip-4"></g>
                <path d="M129.991432,24.3141723 C120.991432,5.81417233 92.3914315,2.81417233 74.5924315,1.11417233 C63.3914315,0.0141723334 47.5924315,-1.28582767 35.0924315,2.71417233 C25.5924315,3.11417233 16.1914315,5.61417233 9.09243152,10.7141723 C-12.8085685,26.3141723 9.59243152,52.6141723 26.5924315,60.3141723 C47.1914315,69.7141723 74.4914315,71.5141723 96.8914315,70.6141723 C121.691432,69.7141723 142.092432,49.2141723 129.991432,24.3141723" id="Fill-3" fill="#0A694E" mask="url(#mask-2)"></path>
            </g>
            <path d="M95.8918315,62.1665411 C83.7908315,58.4675411 64.2908315,56.7675411 49.2908315,60.8665411 C37.4918315,60.0665411 23.7908315,65.8665411 18.2908315,75.1665411 C9.49183152,90.0665411 12.9918315,107.566541 27.4918315,117.366541 C43.1918315,127.866541 62.2908315,128.666541 80.5918315,128.467541 C99.3918315,128.366541 119.191832,120.566541 124.491832,100.866541 C129.591832,81.2675411 112.391832,67.1665411 95.8918315,62.1665411" id="Fill-6" fill="#009444"></path>
            <path d="M98.3918315,146.566941 C96.3918315,143.466941 92.1918315,144.966941 91.8918315,148.366941 C91.1918315,154.866941 84.9918315,155.866941 78.4918315,156.466941 C79.0918315,147.866941 79.6918315,139.366941 79.7908315,130.766941 C79.8918315,122.566941 79.1918315,114.366941 78.5918315,106.266941 C82.6918315,105.566941 86.2908315,102.466941 88.9918315,98.8669411 C92.6918315,93.8669411 94.0918315,87.7669411 94.2908315,81.6669411 C94.3918315,79.0669411 90.7908315,78.8669411 89.9918315,81.0669411 C88.5918315,85.0669411 85.3918315,88.2669411 82.3918315,91.1669411 C80.9918315,92.5669411 79.4918315,93.4669411 77.7908315,94.1669411 C77.4918315,89.0669411 77.2908315,83.8669411 77.4918315,78.6669411 C77.7908315,69.2669411 77.6918315,59.1669411 76.5918315,49.3669411 C79.6918315,48.0669411 82.5918315,45.4669411 84.7908315,43.2669411 C88.5918315,39.5669411 91.0918315,33.6669411 88.4918315,28.6669411 C87.8918315,27.4669411 85.6918315,27.6669411 85.3918315,29.0669411 C84.6918315,32.9669411 83.1918315,36.0669411 79.8918315,38.3669411 C78.4918315,39.3669411 76.7908315,39.6669411 74.9918315,39.7669411 C73.9918315,34.9669411 72.6918315,30.2669411 70.8918315,25.7669411 C69.5918315,22.6669411 65.5918315,23.2669411 65.1918315,26.5669411 C64.6918315,30.4669411 64.4918315,34.2669411 64.2908315,38.1669411 L63.6918315,38.1669411 C61.8918315,38.1669411 59.9918315,37.1669411 58.3918315,36.5669411 C54.4918315,35.1669411 50.7908315,31.9669411 47.9918315,29.0669411 C47.5918315,28.6669411 47.0918315,28.9669411 47.0918315,29.4669411 C46.5918315,35.0669411 50.1918315,40.2669411 54.0918315,44.0669411 C56.1918315,46.1669411 59.8918315,48.0669411 63.4918315,48.5669411 C63.2908315,50.0669411 63.0918315,51.5669411 62.6918315,53.0669411 C60.8918315,61.4669411 60.6918315,70.1669411 60.3918315,78.6669411 C60.1918315,82.7669411 60.2908315,86.9669411 60.3918315,91.0669411 C58.3918315,90.6669411 56.4918315,90.0669411 54.6918315,89.3669411 C49.1918315,87.2669411 46.3918315,83.8669411 42.5918315,79.5669411 C42.0918315,78.9669411 41.2908315,79.2669411 40.8918315,79.7669411 C36.2908315,85.9669411 41.6918315,93.9669411 46.5918315,98.1669411 C49.7908315,100.966941 55.5918315,103.866941 61.0918315,104.866941 C61.7908315,114.966941 62.5918315,125.066941 62.4918315,135.266941 C62.3918315,142.566941 61.8918315,149.966941 61.4918315,157.266941 C58.9918315,157.166941 56.4918315,157.066941 54.0918315,156.666941 C51.4918315,156.166941 48.5918315,155.466941 46.9918315,153.266941 C45.0918315,150.766941 44.3918315,147.866941 42.0918315,145.566941 C41.0918315,144.566941 38.9918315,144.866941 38.6918315,146.466941 C37.2908315,154.366941 38.0918315,161.966941 45.5918315,166.466941 C49.3918315,168.766941 55.1918315,170.166941 60.6918315,170.566941 C60.3918315,176.866941 60.1918315,183.166941 60.4918315,189.466941 C60.9918315,201.066941 58.4918315,216.666941 62.7908315,227.466941 C66.9918315,237.766941 83.8918315,233.266941 79.6918315,222.766941 C77.6918315,217.866941 78.4918315,212.566941 78.6918315,207.366941 C79.0918315,200.066941 78.1918315,192.666941 77.7908315,185.366941 C77.5918315,180.666941 77.5918315,175.966941 77.7908315,171.166941 C82.0918315,170.866941 86.4918315,169.766941 89.5918315,168.566941 C99.1918315,165.166941 104.191832,155.866941 98.3918315,146.566941" id="Fill-8" fill="#824A30"></path>
        </g>
    </g>
</svg>